<?xml version="1.0" encoding="iso-8859-1"?>
<!-- Generator: Adobe Illustrator 19.0.0, SVG Export Plug-In . SVG Version: 6.00 Build 0)  -->
<svg version="1.1" id="Capa_1" xmlns="http://www.w3.org/2000/svg" xmlns:xlink="http://www.w3.org/1999/xlink" x="0px" y="0px"
	 viewBox="0 0 512 512" style="enable-background:new 0 0 512 512;" xml:space="preserve">
<path style="fill:#E70C6A;" d="M439.01,183.01c0,41.429-29.082,107.171-86.426,195.387
	c-41.909,64.462-84.407,118.228-84.827,118.768L256,512l-11.757-14.836c-0.42-0.54-42.918-54.305-84.827-118.768
	C102.072,290.181,72.99,224.439,72.99,183.01C72.99,82.098,155.088,0,256,0S439.01,82.098,439.01,183.01z"/>
<path style="fill:#B40754;" d="M439.01,183.01c0,41.429-29.082,107.171-86.426,195.387
	c-41.909,64.462-84.407,118.228-84.827,118.768L256,512V0C356.912,0,439.01,82.098,439.01,183.01z"/>
<circle style="fill:#FFD9A7;" cx="256" cy="178.951" r="102.442"/>
<path style="fill:#FFC273;" d="M358.442,178.951c0,56.575-45.867,102.442-102.442,102.442V76.509
	C312.575,76.509,358.442,122.377,358.442,178.951z"/>
<g>
</g>
<g>
</g>
<g>
</g>
<g>
</g>
<g>
</g>
<g>
</g>
<g>
</g>
<g>
</g>
<g>
</g>
<g>
</g>
<g>
</g>
<g>
</g>
<g>
</g>
<g>
</g>
<g>
</g>
</svg>
