<?xml version="1.0" encoding="iso-8859-1"?>
<!-- Generator: Adobe Illustrator 19.0.0, SVG Export Plug-In . SVG Version: 6.00 Build 0)  -->
<svg version="1.1" id="Capa_1" xmlns="http://www.w3.org/2000/svg" xmlns:xlink="http://www.w3.org/1999/xlink" x="0px" y="0px"
	 viewBox="0 0 512 512" style="enable-background:new 0 0 512 512;" xml:space="preserve">
<path style="fill:#005ED2;" d="M419.619,0.007l68.887,68.887C504.138,84.526,512,106.447,512,133.128
	c0,21.544-5.123,46.176-15.411,73.128c-21.53,56.379-63.494,117.525-118.151,172.182c-54.01,54.01-114.53,95.732-170.404,117.468
	c-59.573,23.173-108.261,21.26-137.105-5.393l-0.441-0.412L0,419.613l137.269-137.255l66.667,66.668
	c27.549-18.2,54.287-40.171,79.631-65.458c0.213-0.199,0.419-0.405,0.627-0.612c25.052-25.052,46.901-51.513,65.08-78.77
	l-66.923-66.923L419.619,0.007z"/>
<path style="fill:#004EB1;" d="M419.619,0.007l68.887,68.887C504.138,84.526,512,106.447,512,133.128
	c0,21.544-5.123,46.176-15.411,73.128c-21.53,56.379-63.494,117.525-118.151,172.182l-94.871-94.871
	c0.213-0.199,0.419-0.405,0.627-0.612c25.052-25.052,46.901-51.513,65.08-78.77l-66.923-66.923L419.619,0.007z"/>
<rect x="342.312" y="-7.489" transform="matrix(-0.7071 -0.7071 0.7071 -0.7071 571.5642 415.8801)" style="fill:#002D6B;" width="59.204" height="194.108"/>
<rect x="59.972" y="274.856" transform="matrix(-0.7071 -0.7071 0.7071 -0.7071 -110.0674 698.2287)" style="fill:#00459D;" width="59.204" height="194.108"/>
<g>
</g>
<g>
</g>
<g>
</g>
<g>
</g>
<g>
</g>
<g>
</g>
<g>
</g>
<g>
</g>
<g>
</g>
<g>
</g>
<g>
</g>
<g>
</g>
<g>
</g>
<g>
</g>
<g>
</g>
</svg>
